# xmcd CD database file
#
# Track frame offsets:
#	150
#	62607
#	104126
#	162658
#	233468
#
# Disc length: 3898 seconds
#
# Revision: 0
# Processed by: cddbd v1.5.2PL0 Copyright (c) Steve Scherf et al.
# Submitted via: CDex 1.70beta2
#
DISCID=3d0f3805
DTITLE=Herbie Hancock - The New Standard Allstars In Japan
DYEAR=1996
DGENRE=Jazz
TTITLE0=New York Minute 
TTITLE1=Norwegian Wood
TTITLE2=Mercy Street
TTITLE3=You've Got It Bad Girl
TTITLE4=Love Is Stronger Than Pride
EXTD=YEAR: 1996
EXTT0=
EXTT1=
EXTT2=
EXTT3=
EXTT4=
PLAYORDER=
